# xmcd
#
# Track frame offsets: 
#        150
#        3299
#        6631
#        18939
#        26640
#        32977
#        44433
#        61539
#        75914
#        82365
#        96866
#        101838
#        116847
#        127137
#        130934
#        133801
#        136126
#        163042
#        176646
#        182302
#        194142
#        206267
#        218362
#        220798
#        226057
#        242162
#        259068
#        273283
#        288485
#
# Disc length: 4026 seconds
#
# Revision: 0
# Processed by: cddbd v1.5.2PL0 Copyright (c) Steve Scherf et al.
# Submitted via: ExactAudioCopy v0.95b3
#
DISCID=9d0fb81d
DTITLE=Elvis Presley  - American Sound - Disc 07 - PC 87  
DYEAR=1900
DGENRE=
TTITLE0=And The Grass Won't Pay No Mind - Take 1a - rehearsal
TTITLE1=And The Grass Won't Pay No Mind - Take 1b - rehearsal
TTITLE2=And The Grass Won't Pay No Mind - Take 2 - false start and break
TTITLE2=down
TTITLE3=And The Grass Won't Pay No Mind - Take 3 - breakdown
TTITLE4=And The Grass Won't Pay No Mind - Take 4 - breakdown
TTITLE5=And The Grass Won't Pay No Mind - Take 5 - false start and break
TTITLE5=down
TTITLE6=And The Grass Won't Pay No Mind - Take 6 - master
TTITLE7=And The Grass Won't Pay No Mind  +replacement lead vocal - stri
TTITLE7=ngs, brass and backing vocals May 7th
TTITLE8=Power Of My Love - Rehearsal
TTITLE9=Power Of My Love - Take 1 - false start and complete
TTITLE10=Power Of My Love - Take 2 - false start
TTITLE11=Power Of My Love - Take 3 - complete
TTITLE12=Power Of My Love - Take 4 - 4 false starts
TTITLE13=Power Of My Love - Are You Waiting Just For Me
TTITLE14=Power Of My Love - Take 5 - breakdown
TTITLE15=Power Of My Love - Take 6 - false start
TTITLE16=Power Of My Love - Take 7a - breakdown and complete
TTITLE17=Power Of My Love - Take 7b - master
TTITLE18=Power Of My Love  +harmony vocal Feb 22nd
TTITLE19=Power Of My Love  +brass March 19th - backing vocals March 25t
TTITLE19=h
TTITLE20=Power Of My Love - Quad remix
TTITLE21=Power Of My Love - 1987 remix
TTITLE22=After Loving You - Rehearsal
TTITLE23=After Loving You - Take 1 - breakdown
TTITLE24=After Loving You - Take 2 - complete
TTITLE25=After Loving You - Take 3 - complete
TTITLE26=After Loving You - Take 4 - master
TTITLE27=After Loving You - 1980 remix
TTITLE28=After Loving You - 1987 remix
EXTD=
EXTT0=
EXTT1=
EXTT2=
EXTT3=
EXTT4=
EXTT5=
EXTT6=
EXTT7=
EXTT8=
EXTT9=
EXTT10=
EXTT11=
EXTT12=
EXTT13=
EXTT14=
EXTT15=
EXTT16=
EXTT17=
EXTT18=
EXTT19=
EXTT20=
EXTT21=
EXTT22=
EXTT23=
EXTT24=
EXTT25=
EXTT26=
EXTT27=
EXTT28=
PLAYORDER=
